<svg xmlns="http://www.w3.org/2000/svg" viewBox="0 0 32 32">
  <defs>
    <linearGradient id="primary-gradient" x1="0%" y1="0%" x2="100%" y2="100%">
      <stop offset="0%" style="stop-color:#2C3E50"/>
      <stop offset="100%" style="stop-color:#3498DB"/>
    </linearGradient>
    <linearGradient id="accent-gradient" x1="0%" y1="0%" x2="100%" y2="100%">
      <stop offset="0%" style="stop-color:#E74C3C"/>
      <stop offset="100%" style="stop-color:#C0392B"/>
    </linearGradient>
  </defs>

  <!-- Background Circle -->
  <circle cx="16" cy="16" r="15" fill="url(#primary-gradient)"/>

  <!-- Syringe Icon -->
  <g transform="translate(8, 8) scale(0.5)" fill="#ECF0F1">
    <path d="M20 4l4 4M8 24L24 8M12 28L4 20" stroke="url(#accent-gradient)" stroke-width="3" stroke-linecap="round"/>
    <path d="M26 12L18 20L10 28L2 20L10 12L18 4" fill="none" stroke="url(#accent-gradient)" stroke-width="3" stroke-linecap="round" stroke-linejoin="round"/>
    <path d="M28 8L32 4L24 -4L20 0" fill="#95A5A6"/>
    <circle cx="12" cy="20" r="3" fill="#3498DB"/>
  </g>

  <!-- Shield Border -->
  <path d="M16 4C8 8 4 10 4 18C4 28 16 34 16 34C16 34 28 28 28 18C28 10 24 8 16 4Z" fill="none" stroke="#ECF0F1" stroke-width="1" opacity="0.3"/>
</svg>